<?xml version="1.0" encoding="iso-8859-1"?>
<!-- Generator: Adobe Illustrator 19.0.0, SVG Export Plug-In . SVG Version: 6.00 Build 0)  -->
<svg version="1.1" id="Capa_1" xmlns="http://www.w3.org/2000/svg" xmlns:xlink="http://www.w3.org/1999/xlink" x="0px" y="0px"
	 viewBox="0 0 512 512" style="enable-background:new 0 0 512 512;" xml:space="preserve">
<path style="fill:#F5B97D;" d="M367.832,512H54.025c-22.804,0-41.29-18.486-41.29-41.29V57.806c0-22.804,18.486-41.29,41.29-41.29
	h313.806c22.804,0,41.29,18.486,41.29,41.29V470.71C409.122,493.514,390.636,512,367.832,512z"/>
<path style="fill:#E3AA75;" d="M291.505,495.484H62.283c-9.122,0-16.516-7.395-16.516-16.516v-82.581H376.09v17.933
	c0,4.38-1.74,8.581-4.837,11.679l-62.229,62.229C304.377,492.874,298.076,495.484,291.505,495.484z"/>
<path style="fill:#FFFFFF;" d="M367.832,49.548H54.025c-4.561,0-8.258,3.697-8.258,8.258V470.71c0,4.56,3.697,8.258,8.258,8.258
	h239.482l82.582-82.584V57.806C376.09,53.245,372.392,49.548,367.832,49.548z"/>
<path style="fill:#6F6571;" d="M318.283,256h-214.71c-4.561,0-8.258-3.697-8.258-8.258l0,0c0-4.561,3.697-8.258,8.258-8.258h214.71
	c4.561,0,8.258,3.697,8.258,8.258l0,0C326.541,252.303,322.844,256,318.283,256z"/>
<path style="fill:#5D5360;" d="M318.283,297.29h-214.71c-4.561,0-8.258-3.697-8.258-8.258l0,0c0-4.561,3.697-8.258,8.258-8.258
	h214.71c4.561,0,8.258,3.697,8.258,8.258l0,0C326.541,293.593,322.844,297.29,318.283,297.29z"/>
<path style="fill:#6F6571;" d="M276.993,338.581H103.574c-4.561,0-8.258-3.697-8.258-8.258l0,0c0-4.561,3.697-8.258,8.258-8.258
	h173.419c4.561,0,8.258,3.697,8.258,8.258l0,0C285.251,334.883,281.554,338.581,276.993,338.581z"/>
<path style="fill:#5D5360;" d="M243.961,379.871H103.574c-4.561,0-8.258-3.697-8.258-8.258l0,0c0-4.561,3.697-8.258,8.258-8.258
	h140.387c4.561,0,8.258,3.697,8.258,8.258l0,0C252.219,376.174,248.522,379.871,243.961,379.871z"/>
<path style="fill:#DBD9DC;" d="M268.735,57.806H153.122c-9.122,0-16.516-7.395-16.516-16.516V16.516
	C136.606,7.395,144.001,0,153.122,0h115.613c9.122,0,16.516,7.395,16.516,16.516V41.29
	C285.251,50.412,277.857,57.806,268.735,57.806z"/>
<path style="fill:#EDEBED;" d="M301.767,396.387c-4.561,0-8.258,3.697-8.258,8.258v74.323l82.581-82.581H301.767z"/>
<g>
	<path style="fill:#5D5360;" d="M193.275,140.492c4.565,0,8.258-3.694,8.258-8.258s-3.694-8.258-8.258-8.258h-32.75
		c-4.565,0-8.258,3.694-8.258,8.258v57.702c0,4.565,3.694,8.258,8.258,8.258h32.75c4.565,0,8.258-3.694,8.258-8.258
		s-3.694-8.258-8.258-8.258h-24.492v-12.339h20.403c4.565,0,8.258-3.694,8.258-8.258s-3.694-8.258-8.258-8.258h-20.403v-12.331
		L193.275,140.492L193.275,140.492z"/>
	<path style="fill:#5D5360;" d="M134.646,123.976c-4.565,0-8.258,3.694-8.258,8.258v26.419l-17.306-30.492
		c-1.863-3.266-5.661-4.863-9.29-3.911c-3.629,0.96-6.153,4.234-6.153,7.984v57.702c0,4.565,3.694,8.258,8.258,8.258
		c4.565,0,8.258-3.694,8.258-8.258v-26.419l17.306,30.492c1.5,2.637,4.266,4.185,7.185,4.185c0.702,0,1.403-0.089,2.105-0.274
		c3.629-0.96,6.153-4.234,6.153-7.984v-57.702C142.904,127.669,139.211,123.976,134.646,123.976z"/>
	<path style="fill:#5D5360;" d="M266.195,124.153c-4.444-0.935-8.847,1.903-9.798,6.363l-4.202,19.742l-4.194-19.742
		c-0.815-3.815-4.185-6.54-8.081-6.54s-7.266,2.726-8.081,6.54l-4.202,19.758l-4.202-19.758c-0.96-4.46-5.347-7.298-9.798-6.363
		c-4.46,0.952-7.306,5.339-6.363,9.798l12.282,57.702c0.815,3.815,4.185,6.54,8.081,6.54s7.266-2.726,8.081-6.54l4.202-19.742
		l4.194,19.742c0.815,3.815,4.185,6.54,8.081,6.54c3.895,0,7.266-2.726,8.081-6.54l12.282-57.702
		C273.501,129.492,270.654,125.105,266.195,124.153z"/>
	<path style="fill:#5D5360;" d="M304.759,153.331c-10.435-3.831-10.968-5.718-10.968-8.476c0-1.734,3.242-4.363,8.121-4.363
		s8.113,2.629,8.113,4.363c0,4.565,3.694,8.258,8.258,8.258s8.258-3.694,8.258-8.258c0-11.516-11.048-20.879-24.629-20.879
		c-13.589,0-24.637,9.363-24.637,20.879c0,15.984,14.177,21.185,21.79,23.976c10.427,3.839,10.96,5.726,10.96,8.484
		c0,1.734-3.234,4.363-8.113,4.363s-8.121-2.629-8.121-4.363c0-4.565-3.694-8.258-8.258-8.258s-8.258,3.694-8.258,8.258
		c0,11.516,11.048,20.879,24.637,20.879c13.581,0,24.629-9.363,24.629-20.879C326.541,161.339,312.372,156.129,304.759,153.331z"/>
</g>
<path style="fill:#C9C6CA;" d="M268.735,41.29H153.122c-9.121,0-16.516-7.395-16.516-16.516V41.29
	c0,9.121,7.395,16.516,16.516,16.516h115.613c9.121,0,16.516-7.395,16.516-16.516V24.774
	C285.251,33.896,277.857,41.29,268.735,41.29z"/>
<path style="fill:#FFE17D;" d="M293.254,345.839l-34.89,19.383c-3.623,2.013-7.617-1.981-5.604-5.604l19.383-34.89
	c1.863-3.354,4.185-6.431,6.898-9.144l194.448-194.448c3.225-3.225,8.454-3.225,11.679,0l11.679,11.679
	c3.225,3.225,3.225,8.454,0,11.679L302.398,338.942C299.685,341.655,296.607,343.976,293.254,345.839z"/>
<path style="fill:#FFD164;" d="M485.168,121.136c-3.225-3.225-8.454-3.225-11.679,0L279.041,315.584
	c-2.713,2.713-5.034,5.791-6.898,9.145l-19.383,34.89c-1.052,1.894-0.446,3.867,0.874,5.053l237.534-237.534L485.168,121.136z"/>
<path style="fill:#FFEDB1;" d="M279.041,315.584c-2.713,2.713-5.034,5.791-6.898,9.145l-19.383,34.89
	c-2.013,3.623,1.981,7.617,5.604,5.604l34.89-19.383c3.354-1.863,6.431-4.185,9.144-6.898l1.75-1.75l-23.357-23.357L279.041,315.584
	z"/>
<path style="fill:#FF8087;" d="M479.328,162.011l17.518-17.518c3.225-3.225,3.225-8.454,0-11.679l-11.678-11.678
	c-3.225-3.225-8.454-3.225-11.679,0l-17.518,17.518L479.328,162.011z"/>
<path style="fill:#E6646E;" d="M485.168,121.136c-3.225-3.225-8.454-3.225-11.679,0l-17.518,17.518l11.841,11.84l23.357-23.357
	L485.168,121.136z"/>
<path style="fill:#5D5360;" d="M262.908,341.351l-10.149,18.268c-2.013,3.623,1.981,7.617,5.604,5.604l18.267-10.148
	L262.908,341.351z"/>
<g>
</g>
<g>
</g>
<g>
</g>
<g>
</g>
<g>
</g>
<g>
</g>
<g>
</g>
<g>
</g>
<g>
</g>
<g>
</g>
<g>
</g>
<g>
</g>
<g>
</g>
<g>
</g>
<g>
</g>
</svg>
